<?xml version="1.0" encoding="utf-8"?><svg viewBox="0 0 194 39" xmlns="http://www.w3.org/2000/svg" xmlns:xlink="http://www.w3.org/1999/xlink"><style>:root>svg{display:none}:root>svg:target{display:block}</style><svg viewBox="0 0 10 15" id="arrow" xmlns="http://www.w3.org/2000/svg"><path d="M9 14L1 7.5 9 1" stroke-width="1.5" stroke-linecap="round" stroke-linejoin="round"/></svg><svg viewBox="0 0 20 20" id="check" xmlns="http://www.w3.org/2000/svg"><path d="M15.53 7.53a.75.75 0 00-1.06-1.06l1.06 1.06zM8 14l-.53.53a.75.75 0 001.06 0L8 14zm-2.47-3.53a.75.75 0 00-1.06 1.06l1.06-1.06zm8.94-4l-7 7 1.06 1.06 7-7-1.06-1.06zm-10 5.06l3 3 1.06-1.06-3-3-1.06 1.06zM18.25 10A8.25 8.25 0 0110 18.25v1.5c5.385 0 9.75-4.365 9.75-9.75h-1.5zM10 18.25A8.25 8.25 0 011.75 10H.25c0 5.385 4.365 9.75 9.75 9.75v-1.5zM1.75 10A8.25 8.25 0 0110 1.75V.25C4.615.25.25 4.615.25 10h1.5zM10 1.75A8.25 8.25 0 0118.25 10h1.5c0-5.385-4.365-9.75-9.75-9.75v1.5z"/></svg><svg viewBox="0 0 19 19" id="clip" xmlns="http://www.w3.org/2000/svg"><path d="M18 8.97l-8.037 7.58A5.415 5.415 0 016.25 18a5.415 5.415 0 01-3.712-1.45C1.553 15.62 1 14.362 1 13.048c0-1.313.553-2.572 1.538-3.501l8.037-7.58A3.61 3.61 0 0113.05 1a3.61 3.61 0 012.475.967A3.209 3.209 0 0116.55 4.3c0 .876-.369 1.715-1.025 2.334l-8.046 7.58c-.328.31-.773.484-1.237.484-.465 0-.91-.174-1.238-.484a1.604 1.604 0 01-.513-1.167c0-.437.185-.857.513-1.167l7.425-6.994" stroke-width="1.5" stroke-linecap="round" stroke-linejoin="round"/></svg><svg viewBox="0 0 32 32" id="like" xmlns="http://www.w3.org/2000/svg"><path d="M8.16 13.1H1V31h7.16m0-17.9V31m0-17.9l9.3-10.85a3.58 3.58 0 013.586-1.143l.085.021c2.402.6 3.484 3.4 2.11 5.46L18.9 13.1h8.163a3.58 3.58 0 013.51 4.282l-2.148 10.74A3.58 3.58 0 0124.915 31H8.16" stroke-width="2" stroke-linecap="round" stroke-linejoin="round"/></svg><svg viewBox="0 0 194 39" id="logo" xmlns="http://www.w3.org/2000/svg"><path d="M105.94 15.28c-2.093 0-3.833-.7-5.22-2.1-1.373-1.387-2.06-3.113-2.06-5.18 0-2.08.687-3.807 2.06-5.18 1.387-1.4 3.127-2.1 5.22-2.1 1.267 0 2.433.3 3.5.9 1.08.587 1.92 1.387 2.52 2.4l-2.38 1.38a3.632 3.632 0 00-1.48-1.46c-.64-.36-1.36-.54-2.16-.54-1.36 0-2.46.427-3.3 1.28-.827.867-1.24 1.973-1.24 3.32 0 1.333.413 2.433 1.24 3.3.84.853 1.94 1.28 3.3 1.28.8 0 1.52-.173 2.16-.52.653-.36 1.147-.847 1.48-1.46l2.38 1.38c-.6 1.013-1.44 1.82-2.52 2.42-1.067.587-2.233.88-3.5.88zm17.374-4.22h-7.54c.333 1.253 1.273 1.88 2.82 1.88.987 0 1.733-.333 2.24-1l2.08 1.2c-.987 1.427-2.44 2.14-4.36 2.14-1.653 0-2.98-.5-3.98-1.5s-1.5-2.26-1.5-3.78c0-1.493.493-2.747 1.48-3.76.973-1.013 2.24-1.52 3.8-1.52 1.48 0 2.687.507 3.62 1.52.96 1.013 1.44 2.267 1.44 3.76 0 .28-.033.633-.1 1.06zm-7.58-2h5.1c-.147-.653-.447-1.153-.9-1.5-.44-.347-.967-.52-1.58-.52-.693 0-1.267.18-1.72.54-.453.347-.753.84-.9 1.48zm15.041-4.34c1.107 0 2.007.367 2.7 1.1.72.747 1.08 1.76 1.08 3.04V15h-2.58V9.18c0-.653-.18-1.16-.54-1.52-.347-.36-.827-.54-1.44-.54-.68 0-1.22.213-1.62.64-.387.413-.58 1.027-.58 1.84V15h-2.58V5h2.58v1.12c.613-.933 1.607-1.4 2.98-1.4zm11.703.28v2.48h-2.26v4.16c0 .347.087.6.26.76.173.16.427.253.76.28.333.013.747.007 1.24-.02V15c-1.747.2-2.993.04-3.74-.48-.733-.533-1.1-1.493-1.1-2.88V7.48h-1.74V5h1.74V2.98l2.58-.78V5h2.26zm4.555 0v1.72c.227-.627.614-1.1 1.16-1.42.547-.333 1.174-.5 1.88-.5v2.88c-.786-.107-1.493.053-2.12.48-.613.413-.92 1.1-.92 2.06V15h-2.58V5h2.58zm9.669-4h5.22c1.334 0 2.467.453 3.4 1.36.92.907 1.38 2.02 1.38 3.34 0 1.32-.46 2.433-1.38 3.34-.933.907-2.066 1.36-3.4 1.36h-2.46V15h-2.76V1zm2.76 6.82h2.46c.587 0 1.074-.2 1.46-.6.387-.413.58-.92.58-1.52 0-.613-.193-1.12-.58-1.52-.386-.4-.873-.6-1.46-.6h-2.46v4.24zM168.499 1h5.56c1.92 0 3.52.673 4.8 2.02 1.294 1.333 1.94 2.993 1.94 4.98 0 1.987-.646 3.647-1.94 4.98-1.28 1.347-2.88 2.02-4.8 2.02h-5.56V1zm2.76 11.36h2.8c1.214 0 2.2-.4 2.96-1.2.76-.827 1.14-1.88 1.14-3.16 0-1.293-.38-2.34-1.14-3.14-.76-.813-1.746-1.22-2.96-1.22h-2.8v8.72zM193.417 15h-2.98l-2.82-4.86h-2.1V15h-2.76V1h5.6c1.293 0 2.393.453 3.3 1.36s1.36 2 1.36 3.28c0 .867-.247 1.673-.74 2.42a4.657 4.657 0 01-1.96 1.66l3.1 5.28zm-5.06-11.42h-2.84v4.14h2.84c.52 0 .967-.2 1.34-.6.373-.413.56-.907.56-1.48s-.187-1.06-.56-1.46c-.373-.4-.82-.6-1.34-.6z"/><path d="M98.2 26h5v.66h-2.15V33h-.7v-6.34H98.2V26zm7.312 1.88c.747 0 1.343.263 1.79.79a2.7 2.7 0 01.69 1.85c0 .033-.007.137-.02.31h-4.39c.067.5.28.9.64 1.2.36.3.81.45 1.35.45.76 0 1.297-.283 1.61-.85l.58.34c-.22.36-.523.643-.91.85-.38.2-.81.3-1.29.3-.787 0-1.427-.247-1.92-.74-.493-.493-.74-1.12-.74-1.88 0-.753.243-1.377.73-1.87.487-.5 1.113-.75 1.88-.75zm0 .64c-.52 0-.957.153-1.31.46-.347.307-.553.71-.62 1.21h3.73c-.073-.533-.277-.943-.61-1.23a1.79 1.79 0 00-1.19-.44zm5.86 4.6c-.754 0-1.38-.25-1.88-.75-.5-.513-.75-1.137-.75-1.87 0-.74.25-1.36.75-1.86.5-.507 1.126-.76 1.88-.76.493 0 .936.12 1.33.36.393.233.68.55.86.95l-.54.31c-.134-.3-.35-.537-.65-.71a1.876 1.876 0 00-1-.27c-.554 0-1.02.193-1.4.58-.38.38-.57.847-.57 1.4 0 .547.19 1.017.57 1.41.38.38.846.57 1.4.57.366 0 .696-.087.99-.26.3-.173.533-.413.7-.72l.55.32c-.207.4-.51.717-.91.95-.4.233-.844.35-1.33.35zm5.527-5.24c.6 0 1.077.187 1.43.56.354.367.53.863.53 1.49V33h-.66v-3.07c0-.447-.12-.793-.36-1.04-.233-.247-.566-.37-1-.37-.5 0-.896.157-1.19.47-.286.313-.43.777-.43 1.39V33h-.66v-7h.66v2.78c.374-.6.934-.9 1.68-.9zm5.577 0c.6 0 1.076.187 1.43.56.353.367.53.863.53 1.49V33h-.66v-3.07c0-.447-.12-.793-.36-1.04-.234-.247-.567-.37-1-.37-.5 0-.897.157-1.19.47-.287.313-.43.777-.43 1.39V33h-.66v-5h.66v.78c.373-.6.933-.9 1.68-.9zm7.426 4.49a2.57 2.57 0 01-1.86.75c-.74 0-1.364-.25-1.87-.75-.507-.507-.76-1.13-.76-1.87 0-.74.253-1.36.76-1.86.506-.507 1.13-.76 1.87-.76.733 0 1.353.253 1.86.76.513.5.77 1.12.77 1.86 0 .733-.257 1.357-.77 1.87zm-3.26-.46c.38.38.846.57 1.4.57.553 0 1.02-.19 1.4-.57.38-.393.57-.863.57-1.41 0-.553-.19-1.02-.57-1.4a1.887 1.887 0 00-1.4-.58c-.554 0-1.02.193-1.4.58-.38.38-.57.847-.57 1.4 0 .547.19 1.017.57 1.41zm5.794 1.09h-.66v-7.3h.66V33zm5.591-.63a2.57 2.57 0 01-1.86.75c-.74 0-1.364-.25-1.87-.75-.507-.507-.76-1.13-.76-1.87 0-.74.253-1.36.76-1.86.506-.507 1.13-.76 1.87-.76.733 0 1.353.253 1.86.76.513.5.77 1.12.77 1.86 0 .733-.257 1.357-.77 1.87zm-3.26-.46c.38.38.846.57 1.4.57.553 0 1.02-.19 1.4-.57.38-.393.57-.863.57-1.41 0-.553-.19-1.02-.57-1.4a1.887 1.887 0 00-1.4-.58c-.554 0-1.02.193-1.4.58-.38.38-.57.847-.57 1.4 0 .547.19 1.017.57 1.41zm9.434-2.93V28h.66v4.8c0 .72-.246 1.287-.74 1.7-.493.413-1.083.62-1.77.62-1.166 0-1.956-.407-2.37-1.22l.58-.33c.3.607.897.91 1.79.91.574 0 1.024-.15 1.35-.45.334-.3.5-.71.5-1.23v-.78c-.46.733-1.133 1.1-2.02 1.1a2.495 2.495 0 01-1.83-.76c-.5-.507-.75-1.127-.75-1.86 0-.733.25-1.353.75-1.86a2.495 2.495 0 011.83-.76c.887 0 1.56.367 2.02 1.1zm-3.37 2.93c.38.38.847.57 1.4.57.554 0 1.02-.19 1.4-.57.38-.393.57-.863.57-1.41 0-.553-.19-1.02-.57-1.4a1.885 1.885 0 00-1.4-.58c-.553 0-1.02.193-1.4.58-.38.38-.57.847-.57 1.4 0 .547.19 1.017.57 1.41zm7.408.28l1.62-4.19h.7l-2.14 5.46c-.2.507-.48.897-.84 1.17a1.64 1.64 0 01-1.18.37v-.62c.6.073 1.056-.273 1.37-1.04l.13-.31-2.24-5.03h.7l1.88 4.19z"/><path d="M30.762 35.79c-4.922-1.48-9.84-2.96-14.752-4.436-3.765-1.125-7.533-2.24-11.306-3.344-1.35-.393-2.417-1.14-3.02-2.417a15.886 15.886 0 01-1.092-2.958 22.61 22.61 0 01-.28-8.882c.16-.991.44-1.959.833-2.882.56-1.3 1.71-1.43 2.665-.384a8.496 8.496 0 011.653 3.021c.767 2.206 1.468 4.432 2.202 6.647.269.803.65 1.54 1.414 1.982.453.266.93.492 1.408.713 4.471 2.09 8.96 4.15 13.414 6.28 1.48.708 2.88 1.59 4.314 2.387.188.106.387.19.58.285.083-.215.138-.44.163-.668-.053-1.295.048-2.59.303-3.861.326-1.478.676-2.934 1.568-4.206 2.114-3.042 5.942-4.764 9.952-2.495a14.918 14.918 0 015.86 6.081c.834 1.553 1.21 3.26 1.644 4.958a52.17 52.17 0 001.067 3.722c.347 1.082 1.087 1.65 2.28 1.493.188-.024.378 0 .569 0 2.157-.115 4.317-.248 6.474-.348a39.32 39.32 0 008.583-1.38c3.834-1.046 7.475-2.593 11.034-4.342 1.45-.71 2.269-1.888 2.62-3.477.37-1.733.531-3.504.482-5.275-.018-.892-.117-1.78-.208-2.665a1.658 1.658 0 00-.653-1.139c-.504-.41-.96-.882-1.456-1.344.076-.16.154-.33.23-.499.368-.819.36-1.142-.302-1.746a25.05 25.05 0 00-2.417-1.928c-.75-.525-1.568-.951-2.417-1.465.187.057.302.085.42.127a13.386 13.386 0 014.453 2.819c.482.421.898.913 1.233 1.459a11.748 11.748 0 011.374 4.707c.188 1.991 0 3.97-.208 5.946a7.585 7.585 0 01-.792 2.888 6.788 6.788 0 01-3.323 2.897 115.63 115.63 0 01-5.012 2.079 42.77 42.77 0 01-8.52 2.495c-1.918.32-3.855.556-5.795.729-2.516.223-5.039.35-7.553.498a1.081 1.081 0 01-.604-.196 6.493 6.493 0 00-2.04-1.03c-.736-.179-1.156.072-1.365.797-.066.23-.145.456-.217.686a3.51 3.51 0 010-.798c.051-1.139.087-2.28.142-3.42a.605.605 0 00-.541-.704 4.15 4.15 0 01-.804-.317 3.785 3.785 0 01-1.788-1.51c-.384-.68-.538-1.442.175-2.115.298-.307.576-.632.834-.973a.556.556 0 00.051-.75c-.504-.718-.976-1.462-1.483-2.178-.242-.338-.414-.317-.532.076-.25.773-.452 1.561-.604 2.36-.055.588-.061 1.18-.018 1.77-.487-.465-.991-.882-1.414-1.372-1.357-1.562-2.13-3.456-2.937-5.326-.157-.366-.045-.56.369-.586.58-.043 1.163 0 1.746 0a.773.773 0 00-.347-.209 7.339 7.339 0 00-4.487.027 5.667 5.667 0 00-2.357 1.435 8.722 8.722 0 00-2.19 4.632c-.46 2.659-.03 5.203 1.036 7.716l-.31-.088zM1.91 24.522A6.913 6.913 0 002.96 26.12c.665.758 1.441.658 1.988-.194a5.272 5.272 0 00.725-2.238 19.154 19.154 0 00-1.39-10.185 6.549 6.549 0 00-1.166-1.734c-.604-.67-1.308-.571-1.837.17a4.967 4.967 0 00-.776 2.259c-.112.822-.16 1.65-.203 2.115.073 3.075.448 5.728 1.608 8.211z"/><path d="M35.357 11.666c3.994-.348 7.995-.647 11.982-1.049 4.055-.41 8.055-1.175 12.049-1.957.38-.087.766-.149 1.154-.185a3.74 3.74 0 011.04.058 45.09 45.09 0 0112.574 4.752c.743.423 1.459.891 2.187 1.338a.227.227 0 00.227.028c-.665-.48-1.318-.98-2-1.435A32.215 32.215 0 0063.13 8.52c-2.951-.623-5.674-1.813-8.414-3.022a53.76 53.76 0 00-5.96-2.211 19.3 19.3 0 00-7.656-.626c-2.115.218-4.209.378-6.312.605-2.045.18-4.069.556-6.042 1.124-.517.16-.604.338-.236.758.369.42.792.81 1.154 1.242 1.179 1.408 2.339 2.827 3.499 4.247.141.207.27.422.384.644l-1.157.12v.043c1.066.206 2.133.42 3.202.62 3.021.561 6.042 1.096 9.064 1.682a61.865 61.865 0 0115.67 5.136l.98.49c.306.168.63.304.963.408-.459-.275-.906-.556-1.38-.825-3.393-1.964-7.025-3.345-10.78-4.43-3.822-1.102-7.728-1.794-11.653-2.401l-2.943-.465a1.213 1.213 0 01-.202-.064l.045.07zM80.304 23.128c.018-1.036.16-2.094-.245-3.09a5.742 5.742 0 00-.604-1.082.786.786 0 00-.991-.317l-4.197 1.568c-1.402.516-2.806 1.02-4.205 1.55-.36.147-.707.32-1.043.516a.759.759 0 00-.407.946c.302 1.166.622 2.33.906 3.501.242 1.024.417 2.067.662 3.094.107.4.258.785.45 1.151a.776.776 0 00.843.426c2.257-.2 4.272-1.072 6.208-2.17.677-.383 1.387-.745 1.777-1.47a7.593 7.593 0 00.849-3.55c0-.369-.003-.72-.003-1.073zM49.125 20.451c.604.85 1.209 1.662 1.782 2.475.424.604.834 1.208 1.273 1.78.108.142.269.236.447.262 4.193.143 8.386.275 12.58.396h.67a75.004 75.004 0 00-.906-1.84.49.49 0 00-.302-.166 3344.38 3344.38 0 00-9.332-1.74c-1.961-.37-3.928-.75-5.874-1.121-.102-.018-.196-.027-.338-.046zM65.675 32.382c-3.715.045-7.392.088-11.07.124-.053 0-.108-.054-.283-.148.213-.086.434-.152.658-.2a389.28 389.28 0 014.587-.383c1.386-.109 2.776-.203 4.196-.302-.03-.257-.051-.493-.087-.722a.376.376 0 01.34-.484 2.75 2.75 0 00.826-.302c-.855 0-1.713-.042-2.565 0-2.599.154-5.194.345-7.792.52-.138.011-.275.03-.41.057-.723.112-.82.163-.762.87.081 1.024.254 2.04.402 3.055.06.398.28.547.716.498 2.338-.25 4.68-.444 7.015-.71a7.169 7.169 0 003.486-1.223c.26-.203.508-.42.743-.65zM27.75 27.457c-.099-.159-.215-.307-.347-.44-1.163-.907-2.305-1.865-3.51-2.72a31.916 31.916 0 00-5.84-3.429c-1.946-.837-3.928-1.613-6.025-2.009-.543-.106-1.102-.127-1.655-.187l-.055.148c.423.272.831.58 1.275.816 2.946 1.568 5.889 3.15 8.864 4.664 1.934.985 3.928 1.87 5.889 2.783.384.153.778.282 1.178.387.076.005.152 0 .227-.012zM11.617 5.892c.84.35 1.67.731 2.523 1.048 1.577.587 3.17 1.136 4.752 1.701.8.287 1.51.671 1.886 1.511.1.166.22.32.356.456l.078-.081c-.096-.257-.193-.51-.302-.753l6.022.605a1.481 1.481 0 01-1.29.643c-1.194.036-2.384.015-3.578.018h-.244v.094c.447.088.906.166 1.341.266 1.115.248 2.23.49 3.323.77.298.103.579.249.834.432a1.38 1.38 0 01.668.997l1.308-1.368a1.643 1.643 0 011.423-.626c.177-.006.352-.033.523-.078a29.341 29.341 0 00-6.136-7.073L25 4.539c.408.498.813 1.003 1.227 1.51.985 1.175 1.982 2.339 2.954 3.523.214.294.393.611.535.946.133.271.018.462-.275.534a2.306 2.306 0 01-1.812-.253.527.527 0 01-.23-.716c.205-.505.145-.756-.393-.907a11.483 11.483 0 00-2.202-.438 14.278 14.278 0 00-2.417 0 8.61 8.61 0 01-3.447-.456c-2.318-.786-4.641-1.553-6.95-2.326-.114-.04-.232-.07-.347-.103l-.027.04zM39.251 30.177c.06-.26.11-.466.155-.653-2.52-1.51-4.59-3.414-5.986-6.042.06.462.121.906.182 1.371 0 .064 0 .124.027.188a2.06 2.06 0 01-.269 1.61 4.59 4.59 0 00-.55 3.302l6.441.224zM30.998 32.351c1.32.164 2.59.303 3.855.487.982.136 1.97.269 2.867.734.626.33.828.695.704 1.384-.112.628-.287 1.247-.432 1.87l-.054.239a427.548 427.548 0 002.115-3.378c-.248-.438-.472-.852-.716-1.254a.363.363 0 00-.248-.142c-2.665 0-5.33.006-7.994.018 0 0-.021-.003-.097.042zM42.642 33.265c-.113.09-.236.169-.366.232-.888.287-1.29.976-1.562 1.813-.136.423-.347.825-.462 1.275.242-.35.468-.71.731-1.042.242-.319.513-.614.81-.883a.906.906 0 011.127-.06c.483.302.94.653 1.444.96a450.123 450.123 0 00-1.722-2.295z"/></svg><svg viewBox="0 0 17 15" id="telegram" xmlns="http://www.w3.org/2000/svg"><path d="M15.852.099L.794 6.208C-.234 6.642-.228 7.245.605 7.514l3.866 1.27 8.946-5.939c.423-.27.809-.125.491.172L6.661 9.9l-.267 4.193c.391 0 .563-.189.783-.411l1.877-1.921 3.906 3.035c.72.418 1.238.203 1.417-.701L16.941 1.38C17.204.273 16.54-.228 15.853.099z"/></svg><svg viewBox="0 0 18 18" id="whatsup" xmlns="http://www.w3.org/2000/svg"><path d="M.057 17.081l1.2-4.386a8.446 8.446 0 01-1.13-4.232C.13 3.797 3.928 0 8.593 0a8.41 8.41 0 015.988 2.482 8.415 8.415 0 012.477 5.989c-.002 4.666-3.8 8.463-8.465 8.463a8.469 8.469 0 01-4.048-1.03L.057 17.081zm4.695-2.71c1.193.709 2.331 1.133 3.837 1.134 3.878 0 7.036-3.156 7.038-7.036a7.033 7.033 0 00-7.032-7.04c-3.88 0-7.037 3.156-7.038 7.035 0 1.583.463 2.769 1.243 4.01l-.711 2.596 2.663-.698zm8.104-3.888c-.053-.088-.194-.141-.406-.247-.211-.106-1.25-.618-1.445-.688-.194-.07-.335-.106-.476.106-.141.211-.547.688-.67.829-.123.14-.247.159-.458.053-.212-.106-.893-.33-1.701-1.05-.629-.561-1.054-1.254-1.177-1.466-.123-.211-.013-.326.093-.431.095-.095.211-.247.317-.37.108-.123.143-.211.214-.353.07-.141.035-.265-.018-.37-.053-.106-.476-1.147-.652-1.57-.172-.413-.347-.358-.476-.364l-.406-.007c-.14 0-.37.053-.563.265-.194.212-.74.723-.74 1.764s.757 2.047.863 2.188c.106.14 1.49 2.277 3.612 3.193.505.218.9.348 1.206.446.507.16.968.138 1.332.084.407-.06 1.252-.512 1.428-1.006.176-.494.176-.918.123-1.006z"/></svg></svg>