<svg width="194" height="39" viewBox="0 0 194 39" fill="none" xmlns="http://www.w3.org/2000/svg">
<path d="M105.94 15.28C103.847 15.28 102.107 14.58 100.72 13.18C99.3467 11.7933 98.66 10.0667 98.66 8C98.66 5.92 99.3467 4.19333 100.72 2.82C102.107 1.42 103.847 0.719999 105.94 0.719999C107.207 0.719999 108.373 1.02 109.44 1.62C110.52 2.20667 111.36 3.00667 111.96 4.02L109.58 5.4C109.233 4.77333 108.74 4.28667 108.1 3.94C107.46 3.58 106.74 3.4 105.94 3.4C104.58 3.4 103.48 3.82667 102.64 4.68C101.813 5.54667 101.4 6.65333 101.4 8C101.4 9.33333 101.813 10.4333 102.64 11.3C103.48 12.1533 104.58 12.58 105.94 12.58C106.74 12.58 107.46 12.4067 108.1 12.06C108.753 11.7 109.247 11.2133 109.58 10.6L111.96 11.98C111.36 12.9933 110.52 13.8 109.44 14.4C108.373 14.9867 107.207 15.28 105.94 15.28ZM123.314 11.06H115.774C116.107 12.3133 117.047 12.94 118.594 12.94C119.581 12.94 120.327 12.6067 120.834 11.94L122.914 13.14C121.927 14.5667 120.474 15.28 118.554 15.28C116.901 15.28 115.574 14.78 114.574 13.78C113.574 12.78 113.074 11.52 113.074 10C113.074 8.50667 113.567 7.25333 114.554 6.24C115.527 5.22667 116.794 4.72 118.354 4.72C119.834 4.72 121.041 5.22667 121.974 6.24C122.934 7.25333 123.414 8.50667 123.414 10C123.414 10.28 123.381 10.6333 123.314 11.06ZM115.734 9.06H120.834C120.687 8.40667 120.387 7.90667 119.934 7.56C119.494 7.21333 118.967 7.04 118.354 7.04C117.661 7.04 117.087 7.22 116.634 7.58C116.181 7.92667 115.881 8.42 115.734 9.06ZM130.775 4.72C131.882 4.72 132.782 5.08667 133.475 5.82C134.195 6.56667 134.555 7.58 134.555 8.86V15H131.975V9.18C131.975 8.52667 131.795 8.02 131.435 7.66C131.088 7.3 130.608 7.12 129.995 7.12C129.315 7.12 128.775 7.33333 128.375 7.76C127.988 8.17333 127.795 8.78667 127.795 9.6V15H125.215V5H127.795V6.12C128.408 5.18667 129.402 4.72 130.775 4.72ZM142.478 5V7.48H140.218V11.64C140.218 11.9867 140.305 12.24 140.478 12.4C140.651 12.56 140.905 12.6533 141.238 12.68C141.571 12.6933 141.985 12.6867 142.478 12.66V15C140.731 15.2 139.485 15.04 138.738 14.52C138.005 13.9867 137.638 13.0267 137.638 11.64V7.48H135.898V5H137.638V2.98L140.218 2.2V5H142.478ZM147.033 5V6.72C147.26 6.09333 147.647 5.62 148.193 5.3C148.74 4.96667 149.367 4.8 150.073 4.8V7.68C149.287 7.57333 148.58 7.73333 147.953 8.16C147.34 8.57333 147.033 9.26 147.033 10.22V15H144.453V5H147.033ZM156.702 0.999999H161.922C163.256 0.999999 164.389 1.45333 165.322 2.36C166.242 3.26667 166.702 4.38 166.702 5.7C166.702 7.02 166.242 8.13333 165.322 9.04C164.389 9.94667 163.256 10.4 161.922 10.4H159.462V15H156.702V0.999999ZM159.462 7.82H161.922C162.509 7.82 162.996 7.62 163.382 7.22C163.769 6.80667 163.962 6.3 163.962 5.7C163.962 5.08667 163.769 4.58 163.382 4.18C162.996 3.78 162.509 3.58 161.922 3.58H159.462V7.82ZM168.499 0.999999H174.059C175.979 0.999999 177.579 1.67333 178.859 3.02C180.153 4.35333 180.799 6.01333 180.799 8C180.799 9.98667 180.153 11.6467 178.859 12.98C177.579 14.3267 175.979 15 174.059 15H168.499V0.999999ZM171.259 12.36H174.059C175.273 12.36 176.259 11.96 177.019 11.16C177.779 10.3333 178.159 9.28 178.159 8C178.159 6.70667 177.779 5.66 177.019 4.86C176.259 4.04667 175.273 3.64 174.059 3.64H171.259V12.36ZM193.417 15H190.437L187.617 10.14H185.517V15H182.757V0.999999H188.357C189.65 0.999999 190.75 1.45333 191.657 2.36C192.564 3.26667 193.017 4.36 193.017 5.64C193.017 6.50667 192.77 7.31333 192.277 8.06C191.784 8.79333 191.13 9.34667 190.317 9.72L193.417 15ZM188.357 3.58H185.517V7.72H188.357C188.877 7.72 189.324 7.52 189.697 7.12C190.07 6.70667 190.257 6.21333 190.257 5.64C190.257 5.06667 190.07 4.58 189.697 4.18C189.324 3.78 188.877 3.58 188.357 3.58Z" fill="#ECF3FF"/>
<path d="M98.2 26H103.2V26.66H101.05V33H100.35V26.66H98.2V26ZM105.512 27.88C106.259 27.88 106.855 28.1433 107.302 28.67C107.762 29.19 107.992 29.8067 107.992 30.52C107.992 30.5533 107.985 30.6567 107.972 30.83H103.582C103.649 31.33 103.862 31.73 104.222 32.03C104.582 32.33 105.032 32.48 105.572 32.48C106.332 32.48 106.869 32.1967 107.182 31.63L107.762 31.97C107.542 32.33 107.239 32.6133 106.852 32.82C106.472 33.02 106.042 33.12 105.562 33.12C104.775 33.12 104.135 32.8733 103.642 32.38C103.149 31.8867 102.902 31.26 102.902 30.5C102.902 29.7467 103.145 29.1233 103.632 28.63C104.119 28.13 104.745 27.88 105.512 27.88ZM105.512 28.52C104.992 28.52 104.555 28.6733 104.202 28.98C103.855 29.2867 103.649 29.69 103.582 30.19H107.312C107.239 29.6567 107.035 29.2467 106.702 28.96C106.355 28.6667 105.959 28.52 105.512 28.52ZM111.372 33.12C110.618 33.12 109.992 32.87 109.492 32.37C108.992 31.8567 108.742 31.2333 108.742 30.5C108.742 29.76 108.992 29.14 109.492 28.64C109.992 28.1333 110.618 27.88 111.372 27.88C111.865 27.88 112.308 28 112.702 28.24C113.095 28.4733 113.382 28.79 113.562 29.19L113.022 29.5C112.888 29.2 112.672 28.9633 112.372 28.79C112.078 28.61 111.745 28.52 111.372 28.52C110.818 28.52 110.352 28.7133 109.972 29.1C109.592 29.48 109.402 29.9467 109.402 30.5C109.402 31.0467 109.592 31.5167 109.972 31.91C110.352 32.29 110.818 32.48 111.372 32.48C111.738 32.48 112.068 32.3933 112.362 32.22C112.662 32.0467 112.895 31.8067 113.062 31.5L113.612 31.82C113.405 32.22 113.102 32.5367 112.702 32.77C112.302 33.0033 111.858 33.12 111.372 33.12ZM116.899 27.88C117.499 27.88 117.976 28.0667 118.329 28.44C118.683 28.8067 118.859 29.3033 118.859 29.93V33H118.199V29.93C118.199 29.4833 118.079 29.1367 117.839 28.89C117.606 28.6433 117.273 28.52 116.839 28.52C116.339 28.52 115.943 28.6767 115.649 28.99C115.363 29.3033 115.219 29.7667 115.219 30.38V33H114.559V26H115.219V28.78C115.593 28.18 116.153 27.88 116.899 27.88ZM122.476 27.88C123.076 27.88 123.552 28.0667 123.906 28.44C124.259 28.8067 124.436 29.3033 124.436 29.93V33H123.776V29.93C123.776 29.4833 123.656 29.1367 123.416 28.89C123.182 28.6433 122.849 28.52 122.416 28.52C121.916 28.52 121.519 28.6767 121.226 28.99C120.939 29.3033 120.796 29.7667 120.796 30.38V33H120.136V28H120.796V28.78C121.169 28.18 121.729 27.88 122.476 27.88ZM129.902 32.37C129.388 32.87 128.768 33.12 128.042 33.12C127.302 33.12 126.678 32.87 126.172 32.37C125.665 31.8633 125.412 31.24 125.412 30.5C125.412 29.76 125.665 29.14 126.172 28.64C126.678 28.1333 127.302 27.88 128.042 27.88C128.775 27.88 129.395 28.1333 129.902 28.64C130.415 29.14 130.672 29.76 130.672 30.5C130.672 31.2333 130.415 31.8567 129.902 32.37ZM126.642 31.91C127.022 32.29 127.488 32.48 128.042 32.48C128.595 32.48 129.062 32.29 129.442 31.91C129.822 31.5167 130.012 31.0467 130.012 30.5C130.012 29.9467 129.822 29.48 129.442 29.1C129.062 28.7133 128.595 28.52 128.042 28.52C127.488 28.52 127.022 28.7133 126.642 29.1C126.262 29.48 126.072 29.9467 126.072 30.5C126.072 31.0467 126.262 31.5167 126.642 31.91ZM132.436 33H131.776V25.7H132.436V33ZM138.027 32.37C137.513 32.87 136.893 33.12 136.167 33.12C135.427 33.12 134.803 32.87 134.297 32.37C133.79 31.8633 133.537 31.24 133.537 30.5C133.537 29.76 133.79 29.14 134.297 28.64C134.803 28.1333 135.427 27.88 136.167 27.88C136.9 27.88 137.52 28.1333 138.027 28.64C138.54 29.14 138.797 29.76 138.797 30.5C138.797 31.2333 138.54 31.8567 138.027 32.37ZM134.767 31.91C135.147 32.29 135.613 32.48 136.167 32.48C136.72 32.48 137.187 32.29 137.567 31.91C137.947 31.5167 138.137 31.0467 138.137 30.5C138.137 29.9467 137.947 29.48 137.567 29.1C137.187 28.7133 136.72 28.52 136.167 28.52C135.613 28.52 135.147 28.7133 134.767 29.1C134.387 29.48 134.197 29.9467 134.197 30.5C134.197 31.0467 134.387 31.5167 134.767 31.91ZM144.201 28.98V28H144.861V32.8C144.861 33.52 144.615 34.0867 144.121 34.5C143.628 34.9133 143.038 35.12 142.351 35.12C141.185 35.12 140.395 34.7133 139.981 33.9L140.561 33.57C140.861 34.1767 141.458 34.48 142.351 34.48C142.925 34.48 143.375 34.33 143.701 34.03C144.035 33.73 144.201 33.32 144.201 32.8V32.02C143.741 32.7533 143.068 33.12 142.181 33.12C141.468 33.12 140.858 32.8667 140.351 32.36C139.851 31.8533 139.601 31.2333 139.601 30.5C139.601 29.7667 139.851 29.1467 140.351 28.64C140.858 28.1333 141.468 27.88 142.181 27.88C143.068 27.88 143.741 28.2467 144.201 28.98ZM140.831 31.91C141.211 32.29 141.678 32.48 142.231 32.48C142.785 32.48 143.251 32.29 143.631 31.91C144.011 31.5167 144.201 31.0467 144.201 30.5C144.201 29.9467 144.011 29.48 143.631 29.1C143.251 28.7133 142.785 28.52 142.231 28.52C141.678 28.52 141.211 28.7133 140.831 29.1C140.451 29.48 140.261 29.9467 140.261 30.5C140.261 31.0467 140.451 31.5167 140.831 31.91ZM148.239 32.19L149.859 28H150.559L148.419 33.46C148.219 33.9667 147.939 34.3567 147.579 34.63C147.225 34.91 146.832 35.0333 146.399 35V34.38C146.999 34.4533 147.455 34.1067 147.769 33.34L147.899 33.03L145.659 28H146.359L148.239 32.19Z" fill="#8A909B"/>
<path d="M30.7622 35.7895C25.8397 34.3091 20.9221 32.8307 16.0097 31.3544C12.2452 30.2285 8.4768 29.1137 4.70432 28.0099C3.35384 27.6172 2.28736 26.8709 1.68312 25.5929C1.2224 24.6456 0.857052 23.6548 0.592468 22.6352C-0.0878396 19.7222 -0.183339 16.7031 0.311499 13.7529C0.472216 12.762 0.752185 11.7942 1.14534 10.8706C1.70426 9.57151 2.85534 9.4416 3.81004 10.4869C4.56137 11.3706 5.1238 12.3988 5.46265 13.5081C6.23003 15.7136 6.93094 17.9402 7.6651 20.1548C7.93398 20.9584 8.31465 21.6956 9.07902 22.1367C9.5322 22.4026 10.0096 22.6291 10.4869 22.8497C14.9583 24.9404 19.4478 27.0008 23.901 29.1308C25.3814 29.8377 26.7803 30.7199 28.2153 31.5175C28.4026 31.6233 28.602 31.7079 28.7954 31.8015C28.8778 31.5868 28.9326 31.3624 28.9585 31.1338C28.9049 29.8394 29.0063 28.5431 29.2607 27.2727C29.5869 25.7954 29.9374 24.3392 30.8287 23.0672C32.9435 20.0249 36.7714 18.3028 40.7805 20.5717C43.2793 21.992 45.3146 24.1039 46.6416 26.6534C47.4755 28.2063 47.8501 29.9133 48.2852 31.6112C48.5873 32.862 48.9559 34.1037 49.3516 35.3333C49.6991 36.4149 50.4393 36.9829 51.6327 36.8258C51.82 36.8016 52.0103 36.8258 52.2007 36.8258C54.3578 36.711 56.518 36.578 58.6751 36.4783C61.5784 36.3368 64.4571 35.8737 67.2583 35.0977C71.0922 34.0523 74.7328 32.5055 78.2918 30.7562C79.7419 30.0462 80.5607 28.8679 80.9111 27.2788C81.2812 25.5459 81.4435 23.7751 81.3945 22.0038C81.3764 21.1125 81.2767 20.2243 81.1861 19.3391C81.1605 19.1148 81.0895 18.8981 80.9772 18.7023C80.865 18.5064 80.714 18.3355 80.5335 18.2001C80.0289 17.7892 79.5727 17.3179 79.0773 16.8556C79.1528 16.6955 79.2314 16.5263 79.3069 16.3571C79.6755 15.5384 79.6664 15.2151 79.0048 14.6109C78.2396 13.9192 77.4324 13.2755 76.5878 12.6833C75.8385 12.1577 75.0198 11.7317 74.1708 11.2181C74.3582 11.2755 74.473 11.3027 74.5908 11.345C76.2473 11.9802 77.7611 12.9383 79.044 14.1637C79.526 14.5854 79.9415 15.0773 80.2767 15.623C81.0609 17.0778 81.5293 18.6818 81.6513 20.33C81.8387 22.321 81.6513 24.2999 81.4429 26.2757C81.3736 27.2815 81.1045 28.2634 80.6513 29.164C79.8968 30.4726 78.7273 31.4922 77.328 32.0613C75.6784 32.7985 74.0047 33.4783 72.3158 34.1399C69.5701 35.265 66.7148 36.1014 63.796 36.6354C61.8776 36.9557 59.941 37.1913 58.0014 37.3636C55.4847 37.5871 52.962 37.714 50.4483 37.8621C50.2318 37.8586 50.0213 37.7902 49.8441 37.6657C49.2306 37.2044 48.5401 36.8556 47.8048 36.6354C47.0676 36.4572 46.6477 36.708 46.4392 37.433C46.3728 37.6627 46.2942 37.8892 46.2217 38.1189C46.1914 37.8539 46.1914 37.5863 46.2217 37.3213C46.273 36.1823 46.3093 35.0402 46.3637 33.9013C46.3778 33.8191 46.3747 33.7349 46.3547 33.6539C46.3347 33.573 46.2981 33.4971 46.2473 33.431C46.1965 33.3648 46.1326 33.3099 46.0595 33.2697C45.9865 33.2295 45.9059 33.2049 45.8229 33.1973C45.5447 33.1198 45.2754 33.0135 45.0193 32.8801C44.2784 32.5782 43.6523 32.0494 43.2307 31.3695C42.847 30.6897 42.6929 29.9284 43.4059 29.2547C43.7039 28.9481 43.9824 28.6232 44.2398 28.2818C44.3405 28.186 44.4016 28.0559 44.4111 27.9172C44.4206 27.7785 44.3778 27.6413 44.2911 27.5326C43.7866 26.8135 43.3153 26.0703 42.8077 25.3543C42.566 25.0159 42.3938 25.0371 42.276 25.4298C42.0256 26.203 41.8238 26.991 41.6718 27.7894C41.6168 28.378 41.6108 28.9702 41.6536 29.5598C41.1672 29.0945 40.6627 28.6776 40.2397 28.1882C38.8832 26.6262 38.1098 24.7319 37.3031 22.8618C37.146 22.4962 37.2578 22.3029 37.6717 22.2757C38.2518 22.2334 38.8349 22.2757 39.4179 22.2757C39.3227 22.1765 39.2028 22.1046 39.0705 22.0672C37.6088 21.6077 36.04 21.6172 34.584 22.0944C33.6923 22.3713 32.8828 22.8643 32.2275 23.5295C31.0502 24.8192 30.2871 26.4327 30.0371 28.161C29.5779 30.8196 30.0069 33.3635 31.0734 35.8771L30.7622 35.7895ZM1.90971 24.5234C2.18468 25.1013 2.53851 25.6381 2.96108 26.1186C3.62575 26.877 4.4022 26.7773 4.94904 25.9253C5.35632 25.2432 5.6042 24.4779 5.67413 23.6866C6.14743 20.2285 5.66687 16.7069 4.28437 13.5021C3.99096 12.8653 3.59722 12.2798 3.11819 11.7679C2.51395 11.0972 1.81 11.1969 1.28129 11.9371C0.842432 12.616 0.575901 13.3917 0.504842 14.197C0.393057 15.0187 0.344723 15.8465 0.302426 16.3118C0.374935 19.3874 0.749567 22.04 1.90971 24.5234Z" fill="#64BD48"/>
<path d="M35.3574 11.6657C39.3514 11.3182 43.3515 11.0191 47.3394 10.6173C51.3939 10.2064 55.394 9.44205 59.388 8.65956C59.7683 8.57292 60.1538 8.51135 60.5421 8.47527C60.8895 8.44587 61.2393 8.46519 61.5814 8.53267C65.9867 9.47958 70.2252 11.0815 74.1556 13.285C74.8989 13.708 75.6149 14.1763 76.343 14.6234C76.375 14.6476 76.4128 14.6628 76.4526 14.6676C76.4924 14.6724 76.5328 14.6665 76.5696 14.6506C75.9049 14.1702 75.2523 13.6717 74.5695 13.2155C71.0957 10.9267 67.2114 9.33235 63.1313 8.52059C60.1796 7.89822 57.4574 6.70786 54.7172 5.49938C52.7756 4.64525 50.7852 3.90678 48.7564 3.28786C46.2722 2.56854 43.6687 2.35586 41.1007 2.66247C38.9858 2.88 36.8921 3.04012 34.7894 3.26671C32.7439 3.44675 30.7204 3.82312 28.747 4.3906C28.2303 4.55072 28.1427 4.72898 28.5113 5.14892C28.8799 5.56887 29.3029 5.95861 29.6654 6.39064C30.8437 7.79852 32.0038 9.21848 33.164 10.6384C33.3051 10.8448 33.4332 11.0597 33.5476 11.282L32.3905 11.4028V11.4451C33.457 11.6506 34.5235 11.8651 35.593 12.0645C38.6142 12.6264 41.6354 13.1612 44.6566 13.7473C50.0861 14.7523 55.3565 16.4796 60.3276 18.8833L61.3065 19.3727C61.6133 19.5405 61.9362 19.6771 62.2702 19.7806C61.811 19.5057 61.3639 19.2247 60.8895 18.9558C57.4967 16.992 53.8652 15.6113 50.1099 14.5267C46.2881 13.424 42.3816 12.7321 38.4571 12.1249L35.5145 11.6596C35.4452 11.6444 35.3775 11.6232 35.312 11.5962L35.3574 11.6657Z" fill="#64BD48"/>
<path d="M80.3036 23.1281C80.3218 22.0918 80.4638 21.0344 80.0589 20.0374C79.8971 19.6561 79.6945 19.2935 79.4547 18.9558C79.3566 18.7912 79.2018 18.668 79.0193 18.6096C78.8367 18.5512 78.6392 18.5615 78.4637 18.6386L74.2673 20.2066C72.8654 20.7232 71.4606 21.2278 70.0618 21.7565C69.7027 21.9043 69.3545 22.0769 69.0194 22.2731C68.8449 22.3505 68.706 22.4908 68.6304 22.6661C68.5548 22.8414 68.5481 23.0387 68.6116 23.2187C68.9137 24.3849 69.2339 25.5481 69.5179 26.7203C69.7596 27.7445 69.9349 28.7868 70.1796 29.814C70.2866 30.2132 70.4376 30.5993 70.6298 30.9651C70.7039 31.1189 70.8266 31.244 70.979 31.321C71.1314 31.398 71.3049 31.4226 71.4727 31.3911C73.7295 31.1917 75.7446 30.3186 77.6812 29.2219C78.358 28.8382 79.068 28.4756 79.4577 27.7506C80.0251 26.6539 80.3166 25.4354 80.3067 24.2006C80.3067 23.8321 80.3036 23.4816 80.3036 23.1281Z" fill="#64BD48"/>
<path d="M49.125 20.4513C49.7292 21.3003 50.3335 22.113 50.9075 22.9257C51.3305 23.5299 51.7414 24.1342 52.1795 24.7052C52.2883 24.848 52.4489 24.9423 52.6266 24.968C56.82 25.111 61.0134 25.243 65.2069 25.3638C65.4093 25.3638 65.6087 25.3638 65.8776 25.3638C65.5755 24.7263 65.2733 24.1191 64.9712 23.5239C64.894 23.4337 64.7866 23.3746 64.6691 23.3577C61.5613 22.7736 58.4505 22.1936 55.3366 21.6175C53.3759 21.2489 51.409 20.8683 49.4634 20.4966C49.3607 20.4785 49.267 20.4695 49.125 20.4513Z" fill="#64BD48"/>
<path d="M65.6755 32.3821C61.9595 32.4274 58.2827 32.4697 54.6059 32.5059C54.5515 32.5059 54.4971 32.4515 54.3219 32.3579C54.5352 32.2724 54.7556 32.2057 54.9805 32.1585C56.5092 32.0215 58.038 31.8936 59.5667 31.7748C60.9534 31.666 62.3432 31.5724 63.7631 31.4727C63.7329 31.2159 63.7118 30.9802 63.6755 30.7506C63.6589 30.696 63.655 30.6383 63.664 30.5819C63.6731 30.5255 63.6949 30.472 63.7279 30.4253C63.7608 30.3787 63.804 30.3402 63.8541 30.3128C63.9042 30.2854 63.9599 30.2698 64.0169 30.2672C64.3063 30.2114 64.5847 30.1093 64.8417 29.9651C63.9867 29.9651 63.1287 29.9228 62.2767 29.9651C59.6785 30.1192 57.0833 30.3095 54.485 30.4847C54.3471 30.4964 54.2099 30.5156 54.0741 30.5421C53.3521 30.6539 53.2554 30.7053 53.3128 31.4122C53.3944 32.4364 53.5666 33.4516 53.7146 34.4667C53.775 34.8655 53.9956 35.0135 54.4306 34.9652C56.7691 34.7144 59.1105 34.5211 61.4459 34.2552C62.695 34.159 63.897 33.7371 64.9323 33.0316C65.1915 32.8286 65.4396 32.6117 65.6755 32.3821Z" fill="#64BD48"/>
<path d="M27.7507 27.4575C27.6515 27.2981 27.535 27.1502 27.4033 27.0164C26.2401 26.11 25.0981 25.1523 23.8926 24.2973C22.0731 22.9504 20.1154 21.8009 18.0526 20.8682C16.107 20.0314 14.1251 19.2549 12.0284 18.8591C11.4845 18.7534 10.9256 18.7323 10.3727 18.6718L10.3184 18.8199C10.7413 19.0918 11.1492 19.3999 11.5933 19.6356C14.539 21.2036 17.4816 22.7867 20.4575 24.3003C22.3911 25.2852 24.3851 26.1705 26.3458 27.0829C26.7302 27.2361 27.1237 27.3653 27.5241 27.4696C27.5998 27.4745 27.6759 27.4705 27.7507 27.4575Z" fill="#64BD48"/>
<path d="M11.6172 5.89213C12.4571 6.24259 13.2879 6.62326 14.1399 6.94049C15.717 7.5266 17.3091 8.07646 18.8923 8.64143C19.6929 8.92844 20.4028 9.31214 20.7775 10.152C20.8774 10.318 20.9971 10.4712 21.134 10.6082L21.2125 10.5267C21.1159 10.2699 21.0192 10.0161 20.9104 9.77438L26.9317 10.3786C26.7893 10.5869 26.596 10.7554 26.3703 10.868C26.1445 10.9806 25.8937 11.0337 25.6416 11.0221C24.4482 11.0584 23.2579 11.0372 22.0645 11.0403H21.8198V11.1339C22.2669 11.2215 22.7262 11.3001 23.1612 11.3998C24.276 11.6475 25.3909 11.8892 26.4845 12.1702C26.7818 12.2734 27.0626 12.4189 27.3184 12.6022C27.4976 12.7073 27.6508 12.8516 27.7665 13.0242C27.8821 13.1969 27.9572 13.3934 27.9861 13.5992L29.2943 12.2306C29.4614 12.0171 29.6788 11.8482 29.9271 11.7391C30.1754 11.6299 30.4469 11.584 30.7172 11.6052C30.8938 11.5986 31.0691 11.5722 31.2399 11.5267C29.5863 8.85588 27.5146 6.46793 25.1038 4.45404L25.0011 4.53863C25.409 5.03713 25.8138 5.54167 26.2277 6.04924C27.2126 7.22448 28.2096 8.38765 29.1825 9.57196C29.3957 9.86608 29.5751 10.1833 29.7172 10.5176C29.8501 10.7895 29.7353 10.9798 29.4423 11.0523C29.1388 11.1359 28.8214 11.1565 28.5097 11.1128C28.198 11.0692 27.8984 10.9622 27.6296 10.7986C27.5669 10.7672 27.5111 10.7237 27.4655 10.6705C27.4199 10.6173 27.3854 10.5556 27.364 10.4889C27.3427 10.4222 27.3348 10.3519 27.341 10.2821C27.3471 10.2123 27.3672 10.1445 27.4 10.0825C27.6054 9.578 27.545 9.32724 27.0072 9.17618C26.2891 8.95854 25.5514 8.81181 24.8047 8.7381C24.0005 8.66979 23.192 8.66979 22.3878 8.7381C21.2196 8.82205 20.0467 8.66682 18.9406 8.2819C16.6233 7.49639 14.3 6.72901 11.9918 5.95558C11.877 5.9163 11.7592 5.88609 11.6444 5.85286L11.6172 5.89213Z" fill="#64BD48"/>
<path d="M39.2514 30.1766C39.3118 29.9167 39.3602 29.7113 39.4055 29.524C36.8858 28.0134 34.8163 26.11 33.4205 23.4816C33.4809 23.9438 33.5413 24.3879 33.6018 24.8532C33.6018 24.9167 33.6018 24.9771 33.6289 25.0405C33.6962 25.3131 33.707 25.5965 33.6608 25.8734C33.6146 26.1503 33.5122 26.4149 33.3601 26.6508C32.7675 27.643 32.5712 28.8223 32.8102 29.953L39.2514 30.1766Z" fill="#64BD48"/>
<path d="M30.998 32.3514C32.3183 32.5146 33.5872 32.6536 34.8531 32.8379C35.835 32.9738 36.8229 33.1067 37.7202 33.572C38.3456 33.9013 38.548 34.2669 38.4242 34.9557C38.3124 35.5841 38.1372 36.2035 37.9921 36.8258L37.9378 37.0645C38.6628 35.9165 39.3819 34.7714 40.0526 33.6868C39.8049 33.2487 39.5813 32.8348 39.3366 32.433C39.307 32.3938 39.2699 32.361 39.2273 32.3366C39.1847 32.3122 39.1376 32.2967 39.0888 32.291C36.4241 32.291 33.7594 32.2971 31.0947 32.3091C31.0947 32.3091 31.0736 32.3061 30.998 32.3514Z" fill="#64BD48"/>
<path d="M42.6417 33.2646C42.5291 33.3558 42.4065 33.4339 42.2762 33.4973C41.3879 33.7843 40.9861 34.4731 40.7142 35.31C40.5783 35.733 40.3668 36.1348 40.252 36.5849C40.4936 36.2345 40.7203 35.875 40.9831 35.5426C41.2249 35.224 41.496 34.9286 41.7928 34.6604C41.9461 34.5244 42.141 34.4444 42.3457 34.4334C42.5503 34.4225 42.7527 34.4812 42.9197 34.6C43.4031 34.9021 43.8593 35.2526 44.3638 35.5608C43.7958 34.7994 43.2309 34.0441 42.6417 33.2646Z" fill="#64BD48"/>
</svg>
