<svg width="18" height="18" viewBox="0 0 18 18" fill="none" xmlns="http://www.w3.org/2000/svg">
<path d="M0.0566406 17.0811L1.2573 12.6948C0.516408 11.4109 0.1271 9.95545 0.127812 8.46299C0.129947 3.79699 3.92694 0 8.59223 0C10.8562 0.000711714 12.9814 0.882525 14.5799 2.48246C16.1777 4.08239 17.0574 6.20899 17.0566 8.47082C17.0545 13.1375 13.2575 16.9345 8.59223 16.9345C7.17591 16.9338 5.78024 16.5787 4.544 15.904L0.0566406 17.0811ZM4.75182 14.3716C5.94465 15.0798 7.08339 15.504 8.58938 15.5047C12.4668 15.5047 15.6254 12.3489 15.6275 8.4694C15.6289 4.58201 12.4853 1.43054 8.59507 1.42912C4.71481 1.42912 1.55836 4.58486 1.55693 8.4637C1.55622 10.0473 2.02026 11.233 2.79959 12.4735L2.08858 15.0698L4.75182 14.3716ZM12.8561 10.4828C12.8034 10.3946 12.6625 10.3419 12.4504 10.2359C12.239 10.1298 11.1992 9.6181 11.0049 9.54764C10.8113 9.47718 10.6704 9.4416 10.5288 9.65369C10.3879 9.86507 9.9822 10.3419 9.85908 10.4828C9.73595 10.6238 9.61211 10.6415 9.40073 10.5355C9.18935 10.4295 8.50753 10.2067 7.69974 9.48572C7.07129 8.92489 6.6464 8.2324 6.52327 8.0203C6.40015 7.80893 6.51046 7.69434 6.6158 7.58901C6.71117 7.49435 6.82717 7.34204 6.93322 7.2182C7.04069 7.09579 7.07556 7.00754 7.14673 6.8659C7.21719 6.72499 7.18232 6.60115 7.12894 6.4951C7.07556 6.38977 6.6528 5.34853 6.47701 4.92506C6.30478 4.51298 6.13041 4.56849 6.00088 4.56209L5.5952 4.55497C5.45428 4.55497 5.22511 4.60764 5.03152 4.81973C4.83793 5.03182 4.29134 5.54283 4.29134 6.58407C4.29134 7.6253 5.04931 8.63095 5.15465 8.77187C5.26069 8.91279 6.64569 11.0494 8.76731 11.9653C9.27191 12.1831 9.6662 12.3134 9.97295 12.4109C10.4797 12.5717 10.9409 12.5489 11.3053 12.4949C11.7117 12.4344 12.5565 11.9831 12.733 11.4892C12.9095 10.9946 12.9095 10.5711 12.8561 10.4828Z" fill="#8690A0"/>
</svg>
